<svg xmlns="http://www.w3.org/2000/svg" viewBox="0 0 360.8 360.8"><g fill="#00041b"><path d="M180.4 360.8c-44.4 0-77.6-77.6-77.6-180.4S136 0 180.4 0 258 77.6 258 180.4s-33.2 180.4-77.6 180.4zm0-348.4c-36 0-65.2 75.2-65.2 168s29.2 168 65.2 168 65.2-75.2 65.2-168-29.2-168-65.2-168z"/><path d="M77.6 295.6c-32 0-46-12.4-52-22.8-12-20-4.8-48 19.6-79.2 22-27.6 55.6-56 95.2-79.6 50.8-30.4 104.4-48.4 142.4-48.4 32 0 46 12.4 52 22.8 3.2 5.6 5.2 12 5.6 18.8.4 6.4-.8 13.6-3.2 21.2-4 12.4-11.2 25.6-22.4 39.2-22 27.6-55.6 56-95.2 79.6-50.4 30.4-103.6 48.4-142 48.4zm205.6-218c-36 0-87.2 17.6-136 46.8-38.4 22.8-71.2 50-92 76.8-21.2 26.8-28 50-18.8 65.2C40.8 274 52 283.2 78 283.2c36 0 87.2-17.6 136-46.8 38.4-22.8 71.2-50 92-76.8 10-12.8 16.8-24.4 20.4-35.6 2-6 2.8-11.6 2.4-16.8-.4-4.8-1.6-9.2-4-13.2-4.8-7.2-15.6-16.4-41.6-16.4z"/><path d="M282.8 293.6c-38 0-90.8-17.2-140.8-45.6-40-22.8-74.4-50.4-96.8-77.6C20 139.6 12.4 111.6 24 91.6c4-7.2 13.2-17.2 31.6-21.6 3.2-.8 6.8 1.2 7.6 4.4.8 3.2-1.2 6.8-4.4 7.6-11.2 2.8-19.2 8-23.6 15.6-8.8 15.2-1.6 38.4 20 64.8 21.6 26 54.8 52.8 93.6 74.8 48.4 27.6 98.8 44 134.8 44 22 0 36.8-6 43.6-17.6 8.8-15.2 1.6-38.4-20-64.8-22.4-26.4-55.6-53.2-94.4-75.2-37.6-21.2-76.4-36-109.6-41.6-3.2-.4-5.6-3.6-5.2-7.2.4-3.2 3.6-5.6 7.2-5.2 34.4 5.6 74.8 21.2 113.6 43.2 40 22.8 74.4 50.4 96.8 77.6 25.2 30.8 32.8 58.8 21.2 78.8-6 11.2-20.4 24.4-54 24.4z"/></g><circle cx="180.4" cy="180.4" r="31.6" fill="#ffe5ad"/><path d="M180.4 218.4c-20.8 0-38-17.2-38-38s17.2-38 38-38 38 17.2 38 38-17.2 38-38 38zm0-63.6c-14 0-25.6 11.6-25.6 25.6s11.6 25.6 25.6 25.6 25.6-11.6 25.6-25.6-11.6-25.6-25.6-25.6z" fill="#00041b"/><circle cx="80.4" cy="76" r="24" fill="#ccb5e4"/><path d="M80.4 106c-16.4 0-30-13.6-30-30s13.6-30 30-30 30 13.6 30 30-13.6 30-30 30zm0-47.6c-9.6 0-17.6 8-17.6 17.6s8 17.6 17.6 17.6S98 85.6 98 76s-8-17.6-17.6-17.6z" fill="#00041b"/></svg>