<svg xmlns="http://www.w3.org/2000/svg" viewBox="0 0 350.4 350.4"><path d="M203.6 315.6c0 15.6-12.8 28.4-28.4 28.4s-28.4-12.8-28.4-28.4h56.8z" fill="#ccb5e4"/><path d="M175.2 350.4c-19.2 0-34.4-15.6-34.4-34.4 0-3.6 2.8-6 6-6 3.6 0 6 2.8 6 6 0 12.4 10 22 22 22 12.4 0 22-10 22-22 0-3.6 2.8-6 6-6s6 2.8 6 6c.8 18.8-14.4 34.4-33.6 34.4z" fill="#00041b"/><path d="M224.4 278c5.6 4 9.2 10.4 9.2 17.6 0 12.4-11.2 22.8-25.2 22.8h-66c-14 0-25.2-10-25.2-22.8 0-6.4 2.8-12 7.6-16l99.6-1.6z" fill="#ffe5ad"/><path d="M208 324.4h-65.6c-17.2 0-31.6-12.8-31.6-28.8 0-8 3.2-15.2 9.6-20.8 2.4-2.4 6.4-2 8.8.4 2.4 2.4 2 6.4-.4 8.8-4 3.2-5.6 7.2-5.6 11.6 0 9.2 8.8 16.4 19.2 16.4h66c10.4 0 19.2-7.6 19.2-16.4 0-4.8-2.4-9.6-6.8-12.8-2.8-2-3.2-6-1.2-8.8s6-3.2 8.8-1.2c7.6 5.6 12 13.6 12 22.4-.8 16.4-14.8 29.2-32.4 29.2z" fill="#00041b"/><path d="M208 283.2h-65.6c-14 0-25.2-10-25.2-22.8 0-4.8 1.6-9.6 4.8-13.6-4.8-36-28-62-28.4-62.4l-5.2-6.8c-13.6-18.4-21.2-40.4-21.2-63.6 0-59.6 48.4-108 108-108s108 48.4 108 108c0 24.8-8 48-23.6 67.2-.4.4-5.6 6.4-5.6 6.4-15.2 17.6-21.6 47.2-24 62 2 3.2 3.2 7.2 3.2 11.2.4 12.4-11.2 22.4-25.2 22.4z" fill="#ccb5e4"/><g fill="#00041b"><path d="M208 289.2h-65.6c-17.2 0-31.6-12.8-31.6-28.8 0-5.2 1.6-10.4 4.8-15.2-5.2-32-25.6-55.6-26.4-56.8l-6-6.8c-14.4-19.6-22-43.6-22-67.6 0-62.8 51.2-114 114-114s114 51.2 114 114c0 26-8.4 50.4-24.8 70.8 0 0-.4.4-5.6 6.4-14 15.6-20 43.6-22 56.4 2 4 2.8 8 2.8 12.4 0 16.4-14 29.2-31.6 29.2zM175.2 12.4C119.2 12.4 73.6 58 73.6 114c0 21.2 6.8 42.8 19.6 60l5.2 6.8c2.4 2.8 24.4 29.2 29.6 65.2.4 1.6-.4 3.6-1.2 4.8-2.4 2.8-3.6 6-3.6 9.6 0 9.2 8.8 16.4 19.2 16.4h66c10.4 0 19.2-7.6 19.2-16.4 0-2.8-.8-5.2-2.4-7.6-.8-1.2-1.2-2.8-.8-4.4 2.4-16.4 9.2-46.4 25.2-64.8 0 0 4.8-5.2 5.2-6 14.4-18 22-40 22-63.2 0-56.4-45.6-102-101.6-102z"/><path d="M254 120c-2.8 0-5.6-2-6-5.2-8.4-50-48.8-71.2-49.2-71.6-3.2-1.6-4.4-5.2-2.8-8.4 1.6-3.2 5.2-4.4 8.4-2.8 2 .8 46 24 55.6 80.4.4 3.2-1.6 6.4-5.2 7.2-.4.4-.4.4-.8.4z"/></g></svg>