<svg xmlns="http://www.w3.org/2000/svg" viewBox="0 0 324.4 324.4"><path fill="#ccb5e4" d="M36.6 318.4V53.6h127.6l61.6 72.8v192z"/><path d="M230.2 122.4l-61.6-72.8c-.4-.4-.8-.8-1.6-1.2l-.4-.4c-.8-.4-1.6-.4-2.4-.4H36.6c-3.6 0-6 2.8-6 6v264.8c0 3.6 2.8 6 6 6h188.8c3.6 0 6-2.8 6-6v-192c.4-1.6 0-2.8-1.2-4zm-60-52l40.8 48.4h-40.8V70.4zM43 312.4V59.6h115.2v65.2c0 3.6 2.8 6 6 6h55.6V312H43v.4z" fill="#00041b"/><path d="M133 110.8H76.6c-3.6 0-6-2.8-6-6 0-3.6 2.8-6 6-6H133c3.6 0 6 2.8 6 6 .4 3.6-2.4 6-6 6zM133 252.8H76.6c-3.6 0-6-2.8-6-6 0-3.6 2.8-6 6-6H133c3.6 0 6 2.8 6 6 .4 3.2-2.4 6-6 6zM188.6 164.4h-112c-3.6 0-6-2.8-6-6 0-3.6 2.8-6 6-6h112c3.6 0 6 2.8 6 6 .4 3.2-2.4 6-6 6zM187 192H75c-3.6 0-6-2.8-6-6 0-3.6 2.8-6 6-6h112c3.6 0 6 2.8 6 6 .4 3.2-2.4 6-6 6zM187 222H75c-3.6 0-6-2.8-6-6 0-3.6 2.8-6 6-6h112c3.6 0 6 2.8 6 6 .4 3.2-2.4 6-6 6z" fill="#00041b"/><circle cx="246.2" cy="47.6" r="41.2" fill="#ffe5ad"/><g fill="#00041b"><path d="M246.2 95.2c-26.4 0-47.6-21.2-47.6-47.6S219.8 0 246.2 0s47.6 21.2 47.6 47.6-21.2 47.6-47.6 47.6zm0-82.8c-19.6 0-35.2 16-35.2 35.2 0 19.6 16 35.2 35.2 35.2s35.2-16 35.2-35.2-15.6-35.2-35.2-35.2z"/><path d="M238.6 63.6h-.8c-1.6-.4-3.2-1.2-4-2.4l-10.4-14.8c-2-2.8-1.2-6.8 1.6-8.4 2.8-2 6.8-1.2 8.4 1.6l6.8 9.6 20.4-15.6c2.8-2 6.4-1.6 8.8 1.2 2 2.8 1.6 6.4-1.2 8.8l-25.6 18.8c-1.2.8-2.4 1.2-4 1.2z"/></g></svg>