<svg xmlns="http://www.w3.org/2000/svg" viewBox="0 0 368.4 368.4"><path d="M151.847 257.6l-4.4 27.6c76.8 12.8 149.6-39.6 162-116.4 12.8-76.8-39.6-149.6-116.4-162l-3.6 21.2-37.6 229.6z" fill="#ffe5ad"/><path d="M170.647 293.2c-8 0-16-.8-24-2-3.2-.4-5.6-3.6-5.2-7.2l45.6-278.8c.4-1.6 1.2-3.2 2.4-4 1.2-.8 2.8-1.2 4.4-1.2 38.8 6.4 72.8 27.6 96 59.6 22.8 32 32 70.8 25.6 110-11.6 71.6-72.4 123.6-144.8 123.6zm-16-13.2c5.2.8 10.8.8 16 .8 66.4 0 122.4-47.6 133.2-113.2 6-35.6-2.4-71.2-23.6-100.8-20-27.6-48.8-46.4-82-53.2l-43.6 266.4z" fill="#00041b"/><circle cx="170.247" cy="145.6" r="113.2" fill="#ccb5e4"/><g fill="#00041b"><path d="M170.247 265.2h-4.4c-65.6-2.4-117.2-57.6-114.8-123.6s57.2-117.6 123.6-115.2c65.6 2.4 117.6 57.6 115.2 123.6-2.4 64.8-54.8 115.2-119.6 115.2zm0-226.8c-58 0-105.2 45.6-107.2 103.6-2 59.2 44.4 108.8 103.2 110.8 59.6 2 108.8-44 110.8-103.2s-44.4-108.8-103.2-110.8c-1.2-.4-2.4-.4-3.6-.4zM170.247 329.2c-3.6 0-6-2.8-6-6v-36c0-3.6 2.8-6 6-6 3.6 0 6 2.8 6 6v36c.4 3.2-2.4 6-6 6z"/></g><path d="M261.047 342.8c0 10.8-8.8 19.6-19.6 19.6h-141.6c-10.8 0-19.6-8.8-19.6-19.6s8.8-19.6 19.6-19.6h141.6c10.8 0 19.6 8.8 19.6 19.6z" fill="#ffe5ad"/><g fill="#00041b"><path d="M241.447 368.4h-141.6c-14.4 0-25.6-11.6-25.6-25.6 0-14.4 11.6-25.6 25.6-25.6h141.6c14.4 0 26 11.6 26 25.6s-11.6 25.6-26 25.6zm-141.6-39.2c-7.6 0-13.6 6-13.6 13.6s6 13.6 13.6 13.6h141.6c7.6 0 13.6-6 13.6-13.6s-6-13.6-13.6-13.6h-141.6zM282.647 168h-.8l-224.4-33.6c-3.2-.4-5.6-3.6-5.2-7.2.4-3.2 3.6-5.6 7.2-5.2l224.4 33.6c3.2.4 5.6 3.6 5.2 7.2-.8 2.8-3.6 5.2-6.4 5.2z"/><path d="M159.047 262.4c-1.6 0-3.2-.8-4.4-2-2-2-49.2-53.2-42.8-118.8 4-42 29.2-80 74.4-112.8 2.8-2 6.8-1.2 8.8 1.2 2 2.8 1.2 6.8-1.2 8.8-42.4 30.8-65.6 65.6-69.2 104-5.6 60 39.2 108.8 39.6 109.2 2.4 2.4 2.4 6.4-.4 8.8-1.6 1.2-3.2 1.6-4.8 1.6z"/><path d="M166.247 262.4c-2 0-4-.8-5.2-2.4-2-2.8-1.2-6.8 1.6-8.4 4.8-3.2 111.6-82 22-213.6-2-2.8-1.2-6.8 1.6-8.4 2.8-2 6.8-1.2 8.4 1.6 96.4 142-24 230-25.2 230.8-.8 0-2 .4-3.2.4z"/><path d="M197.047 106c-66.4 0-98-48-98.4-48.8-2-2.8-.8-6.8 2-8.4 2.8-2 6.8-.8 8.4 2 2 3.2 49.2 73.6 153.6 28 3.2-1.2 6.8 0 8 3.2s0 6.8-3.2 8c-26.4 11.6-50 16-70.4 16zM240.647 240.8c-1.6 0-3.2-.4-4.4-1.6-63.2-60.8-151.6-18-152.4-17.6-3.2 1.6-6.8.4-8.4-2.8-1.6-3.2-.4-6.8 2.8-8.4.8-.4 96.8-47.2 166.4 19.6 2.4 2.4 2.4 6.4 0 8.8-.8 1.2-2.4 2-4 2z"/></g></svg>