<svg xmlns="http://www.w3.org/2000/svg" viewBox="0 0 337.6 337.6"><g fill="#ffe5ad"><path d="M168.8 195.6l-77.2 136L74 270.4 11.2 288l80.4-132.4z"/><path d="M246 155.6L326.4 288l-62.8-17.6-17.6 61.2-77.2-136z"/></g><g fill="#00041b"><path d="M91.6 337.6h-.8c-2.4-.4-4.4-2-5.2-4.4l-16-55.2-56.8 16c-2.4.8-5.2 0-6.4-2.4-1.6-1.6-1.6-4.4-.4-6.8l80.4-132.4c1.6-2.8 5.6-4 8.4-2 2.8 1.6 4 5.6 2 8.4L24.8 278l47.6-13.6c3.2-.8 6.8.8 7.6 4.4L93.6 316l70-123.2c1.6-2.8 5.6-4 8.4-2.4s4 5.6 2.4 8.4l-77.2 136c-1.2 2-3.2 2.8-5.6 2.8z"/><path d="M246 337.6c-2.4 0-4.4-1.2-5.2-3.2l-77.2-136c-1.6-2.8-.8-6.8 2.4-8.4 2.8-1.6 6.8-.8 8.4 2.4l70 123.2 13.2-46.8c.8-3.2 4.4-5.2 7.6-4.4l47.6 13.6-72.4-119.2c-1.6-2.8-.8-6.8 2-8.4 2.8-1.6 6.8-.8 8.4 2l80.8 132.4c1.2 2 1.2 4.8-.4 6.8s-4 2.8-6.4 2.4L268 278l-16 55.2c-.8 2.4-2.8 4-5.2 4.4h-.8zM74 276.8c-1.2 0-2-.4-3.2-.8-2.8-1.6-4-5.6-2.4-8.4l50-86.4c1.6-2.8 5.6-4 8.4-2.4 2.8 1.6 4 5.6 2.4 8.4l-50 86.4c-.8 2-3.2 3.2-5.2 3.2z"/><path d="M263.6 276.8c-2 0-4-1.2-5.2-3.2l-50-86.4c-1.6-2.8-.8-6.8 2.4-8.4 2.8-1.6 6.8-.8 8.4 2.4l49.6 86.4c1.6 2.8.8 6.8-2.4 8.4-.8.4-1.6.8-2.8.8z"/></g><path d="M263.6 100.8c0 52.4-42.4 94.8-94.8 94.8S74 153.2 74 100.8 116.4 6 168.8 6s94.8 42.4 94.8 94.8z" fill="#ccb5e4"/><path d="M168.8 201.6C113.2 201.6 68 156.4 68 100.8S113.2 0 168.8 0s100.8 45.2 100.8 100.8-45.2 100.8-100.8 100.8zm0-189.6C120 12 80 51.6 80 100.8c0 48.8 39.6 88.4 88.8 88.4 48.8 0 88.8-39.6 88.8-88.4S217.6 12 168.8 12z" fill="#00041b"/><circle cx="168.8" cy="100.8" r="61.6" fill="#ffe5ad"/><g fill="#00041b"><path d="M168.8 168.8c-37.6 0-68-30.4-68-68s30.4-68 68-68 68 30.4 68 68c0 37.2-30.4 68-68 68zm0-123.6c-30.8 0-55.6 24.8-55.6 55.6s24.8 55.6 55.6 55.6 55.6-24.8 55.6-55.6-24.8-55.6-55.6-55.6z"/><path d="M192.4 127.6v2.8c0 .8-.4 1.2-.4 1.6-.4.4-.4.8-.8.8s-.4.4-.8.4H150c-.4 0-.4 0-.8-.4s-.4 0-.8-.4-.4-1.2-.4-1.6V128v-2.8c0-.8.4-1.2.4-1.6.4-.4.4-.8.8-.8.4-.4.4-.4.8-.4h13.6v-48L152 80.8c-.8.4-1.6.8-2 .8s-.8 0-1.2-.4-.4-.8-.8-1.6 0-2 0-3.2V74c0-.8 0-1.2.4-1.6s.4-.8.8-1.2c.4-.4.8-.4 1.2-.8l15.6-10s.4-.4.8-.4.8 0 1.2-.4h8c.8 0 1.6 0 2 .4.4 0 .8.4.8.4 0 .4.4.4.4.8v60.4h12c.4 0 .8 0 .8.4l.8.8c.4.4.4 1.2.4 1.6-.8 1.2-.8 2.4-.8 3.2z"/></g></svg>