<svg xmlns="http://www.w3.org/2000/svg" viewBox="0 0 341.6 341.6"><g fill="#00041b"><path d="M22.4 140.5h14v81.6h-14z"/><circle cx="29.6" cy="227.3" r="19.2"/><path d="M29.6 221.7L4.8 300.9h49.6z"/></g><path d="M63.6 159.7v85.6s35.2 49.6 107.2 49.6c72.4 0 107.2-49.6 107.2-49.6v-85.6" fill="#ffe5ad"/><path d="M170.8 300.9c-74.4 0-110.8-50-112.4-52-.8-1.2-1.2-2.4-1.2-3.6v-85.6c0-3.6 2.8-6 6-6 3.6 0 6 2.8 6 6v83.6c6.4 8 40 45.6 101.2 45.6s94.8-37.6 101.2-45.6v-83.6c0-3.6 2.8-6 6-6 3.6 0 6 2.8 6 6v85.6c0 1.2-.4 2.4-1.2 3.6-.8 2-37.2 52-111.6 52z" fill="#00041b"/><path d="M191.6 202.9c-10.4 5.2-27.6 5.2-38.4 0L14 135.7c-10.4-5.2-10.4-13.2 0-18.4l139.6-66.8c10.4-5.2 27.6-4.8 38.4 0l136 66.8c10.4 5.2 10.4 13.6 0 18.8l-136.4 66.8z" fill="#ccb5e4"/><g fill="#00041b"><path d="M172.4 212.9c-8 0-15.6-1.6-21.6-4.4L11.2 141.3C1.2 136.5 0 130.1 0 126.5s1.6-10 11.2-14.8l139.6-66.8c12-5.6 32-5.6 43.6 0l136 66.8c10 4.8 11.2 11.2 11.2 14.8s-1.6 10-11.2 14.8l-136 66.8c-6 3.2-14 4.8-22 4.8zm0-160c-6 0-12 1.2-16.4 3.2L16.4 122.9c-3.6 1.6-4.4 3.2-4.4 3.6 0 .4.8 2 4.4 3.6L156 196.9c8.4 4 24.4 4 32.8 0l136-66.8c3.2-1.6 4.4-3.2 4.4-4 0-.4-1.2-2-4.4-4l-136-66.8c-4-1.2-10-2.4-16.4-2.4z"/><path d="M29.6 149.7c-3.2 0-5.6-2.4-6-5.6-.4-3.2 2-6.4 5.2-6.8L170 120.5c3.2-.4 6.4 2 6.8 5.6.4 3.2-2 6.4-5.2 6.8L30.4 149.7h-.8z"/></g></svg>